<svg id="visual" viewBox="0 0 900 600" width="900" height="600" xmlns="http://www.w3.org/2000/svg" xmlns:xlink="http://www.w3.org/1999/xlink" version="1.1"><rect x="0" y="0" width="900" height="600" fill="#EFEFEF"></rect><path d="M0 421L21.5 439.5C43 458 86 495 128.8 508.8C171.7 522.7 214.3 513.3 257.2 503C300 492.7 343 481.3 385.8 477.3C428.7 473.3 471.3 476.7 514.2 487.2C557 497.7 600 515.3 642.8 520.3C685.7 525.3 728.3 517.7 771.2 514.8C814 512 857 514 878.5 515L900 516L900 601L878.5 601C857 601 814 601 771.2 601C728.3 601 685.7 601 642.8 601C600 601 557 601 514.2 601C471.3 601 428.7 601 385.8 601C343 601 300 601 257.2 601C214.3 601 171.7 601 128.8 601C86 601 43 601 21.5 601L0 601Z" fill="#245EBA" stroke-linecap="round" stroke-linejoin="miter"></path></svg>